<?xml version="1.0" encoding="UTF-8" standalone="no"?> <svg width="48" height="48" viewBox="0 0 48 48" fill="none" xmlns="http://www.w3.org/2000/svg">
<path fill-rule="evenodd" clip-rule="evenodd" d="M24 0C10.7452 0 0 10.7452 0 24C0 37.2548 10.7452 48 24 48C37.2548 48 48 37.2548 48 24C48 10.7452 37.2548 0 24 0ZM26.0264 35.0478L26.0301 35.0459C24.944 35.3359 23.7914 35.4966 22.6499 35.4966C16.0557 35.4966 9.6 30.236 9.6 22.5852C9.6 14.8643 16.0538 9.6 22.6481 9.6C29.3531 9.6 35.7441 14.8237 35.7441 22.5852C35.7441 26.902 33.7308 30.4096 30.8031 32.6779C31.7451 34.0947 32.7204 35.0367 34.0762 35.0367C35.5539 35.0367 36.1523 33.8952 36.2521 32.9975H38.1805C38.2913 34.1925 37.6947 39.1558 32.3066 39.1558C29.0465 39.1558 27.3194 37.2643 26.0264 35.0478Z" fill="black"/>
<path d="M24.8017 32.6447C23.7784 30.6313 22.5778 28.594 20.2338 28.594C19.7868 28.594 19.338 28.6679 18.9279 28.8526L18.1336 27.264C19.1015 26.4291 20.6697 25.7679 22.6849 25.7679C25.8195 25.7679 27.4283 27.2825 28.7065 29.2072C29.4639 27.5633 29.8222 25.3393 29.8222 22.5853C29.8222 15.7066 27.6722 12.1749 22.648 12.1749C17.6977 12.1749 15.5551 15.7066 15.5551 22.5853C15.5551 29.427 17.6977 32.9218 22.648 32.9218C23.4349 32.9218 24.1479 32.8368 24.8017 32.6447Z" fill="black"/>
</svg>
